<mxfile host="app.diagrams.net" modified="2023-04-13T17:03:40.969Z" agent="Mozilla/5.0 (Windows NT 10.0; Win64; x64) AppleWebKit/537.36 (KHTML, like Gecko) Chrome/112.0.0.0 Safari/537.36" etag="3OYlc-YRIaPF3IGTPgNQ" version="21.1.7" type="device">
  <diagram name="Page-1" id="x7RPBYqAmX6w-DPbe6Vq">
    <mxGraphModel dx="1900" dy="1641" grid="1" gridSize="10" guides="1" tooltips="1" connect="1" arrows="1" fold="1" page="1" pageScale="1" pageWidth="850" pageHeight="1100" math="0" shadow="0">
      <root>
        <mxCell id="0" />
        <mxCell id="1" parent="0" />
        <mxCell id="tMXvaUWMIYpln-5o30sm-1" value="" style="ellipse;whiteSpace=wrap;html=1;aspect=fixed;" vertex="1" parent="1">
          <mxGeometry x="240" y="100" width="60" height="60" as="geometry" />
        </mxCell>
        <mxCell id="tMXvaUWMIYpln-5o30sm-2" value="" style="ellipse;whiteSpace=wrap;html=1;aspect=fixed;" vertex="1" parent="1">
          <mxGeometry x="360" y="100" width="60" height="60" as="geometry" />
        </mxCell>
        <mxCell id="tMXvaUWMIYpln-5o30sm-3" value="" style="ellipse;whiteSpace=wrap;html=1;aspect=fixed;" vertex="1" parent="1">
          <mxGeometry x="480" y="100" width="60" height="60" as="geometry" />
        </mxCell>
        <mxCell id="tMXvaUWMIYpln-5o30sm-4" value="" style="ellipse;whiteSpace=wrap;html=1;aspect=fixed;" vertex="1" parent="1">
          <mxGeometry x="600" y="100" width="60" height="60" as="geometry" />
        </mxCell>
        <mxCell id="tMXvaUWMIYpln-5o30sm-5" value="" style="ellipse;whiteSpace=wrap;html=1;aspect=fixed;" vertex="1" parent="1">
          <mxGeometry x="720" y="100" width="60" height="60" as="geometry" />
        </mxCell>
        <mxCell id="tMXvaUWMIYpln-5o30sm-6" value="" style="ellipse;whiteSpace=wrap;html=1;aspect=fixed;" vertex="1" parent="1">
          <mxGeometry x="120" y="100" width="60" height="60" as="geometry" />
        </mxCell>
        <mxCell id="tMXvaUWMIYpln-5o30sm-7" value="" style="ellipse;whiteSpace=wrap;html=1;aspect=fixed;" vertex="1" parent="1">
          <mxGeometry y="100" width="60" height="60" as="geometry" />
        </mxCell>
        <mxCell id="tMXvaUWMIYpln-5o30sm-8" value="" style="ellipse;whiteSpace=wrap;html=1;aspect=fixed;" vertex="1" parent="1">
          <mxGeometry x="840" y="100" width="60" height="60" as="geometry" />
        </mxCell>
        <mxCell id="tMXvaUWMIYpln-5o30sm-19" value="" style="edgeStyle=orthogonalEdgeStyle;rounded=0;orthogonalLoop=1;jettySize=auto;html=1;" edge="1" parent="1" source="tMXvaUWMIYpln-5o30sm-9" target="tMXvaUWMIYpln-5o30sm-10">
          <mxGeometry relative="1" as="geometry" />
        </mxCell>
        <mxCell id="tMXvaUWMIYpln-5o30sm-9" value="S0" style="text;html=1;strokeColor=none;fillColor=none;align=center;verticalAlign=middle;whiteSpace=wrap;rounded=0;" vertex="1" parent="1">
          <mxGeometry y="110" width="60" height="40" as="geometry" />
        </mxCell>
        <mxCell id="tMXvaUWMIYpln-5o30sm-20" value="" style="edgeStyle=orthogonalEdgeStyle;rounded=0;orthogonalLoop=1;jettySize=auto;html=1;" edge="1" parent="1" source="tMXvaUWMIYpln-5o30sm-10" target="tMXvaUWMIYpln-5o30sm-11">
          <mxGeometry relative="1" as="geometry" />
        </mxCell>
        <mxCell id="tMXvaUWMIYpln-5o30sm-10" value="S1" style="text;html=1;strokeColor=none;fillColor=none;align=center;verticalAlign=middle;whiteSpace=wrap;rounded=0;" vertex="1" parent="1">
          <mxGeometry x="120" y="110" width="60" height="40" as="geometry" />
        </mxCell>
        <mxCell id="tMXvaUWMIYpln-5o30sm-21" value="" style="edgeStyle=orthogonalEdgeStyle;rounded=0;orthogonalLoop=1;jettySize=auto;html=1;" edge="1" parent="1" source="tMXvaUWMIYpln-5o30sm-11" target="tMXvaUWMIYpln-5o30sm-12">
          <mxGeometry relative="1" as="geometry" />
        </mxCell>
        <mxCell id="tMXvaUWMIYpln-5o30sm-11" value="S2" style="text;html=1;strokeColor=none;fillColor=none;align=center;verticalAlign=middle;whiteSpace=wrap;rounded=0;" vertex="1" parent="1">
          <mxGeometry x="240" y="110" width="60" height="40" as="geometry" />
        </mxCell>
        <mxCell id="tMXvaUWMIYpln-5o30sm-22" value="" style="edgeStyle=orthogonalEdgeStyle;rounded=0;orthogonalLoop=1;jettySize=auto;html=1;" edge="1" parent="1" source="tMXvaUWMIYpln-5o30sm-12" target="tMXvaUWMIYpln-5o30sm-13">
          <mxGeometry relative="1" as="geometry" />
        </mxCell>
        <mxCell id="tMXvaUWMIYpln-5o30sm-12" value="S3" style="text;html=1;strokeColor=none;fillColor=none;align=center;verticalAlign=middle;whiteSpace=wrap;rounded=0;" vertex="1" parent="1">
          <mxGeometry x="360" y="110" width="60" height="40" as="geometry" />
        </mxCell>
        <mxCell id="tMXvaUWMIYpln-5o30sm-23" value="" style="edgeStyle=orthogonalEdgeStyle;rounded=0;orthogonalLoop=1;jettySize=auto;html=1;" edge="1" parent="1" source="tMXvaUWMIYpln-5o30sm-13" target="tMXvaUWMIYpln-5o30sm-14">
          <mxGeometry relative="1" as="geometry" />
        </mxCell>
        <mxCell id="tMXvaUWMIYpln-5o30sm-13" value="S4" style="text;html=1;strokeColor=none;fillColor=none;align=center;verticalAlign=middle;whiteSpace=wrap;rounded=0;" vertex="1" parent="1">
          <mxGeometry x="480" y="110" width="60" height="40" as="geometry" />
        </mxCell>
        <mxCell id="tMXvaUWMIYpln-5o30sm-24" value="" style="edgeStyle=orthogonalEdgeStyle;rounded=0;orthogonalLoop=1;jettySize=auto;html=1;" edge="1" parent="1" source="tMXvaUWMIYpln-5o30sm-14" target="tMXvaUWMIYpln-5o30sm-15">
          <mxGeometry relative="1" as="geometry" />
        </mxCell>
        <mxCell id="tMXvaUWMIYpln-5o30sm-14" value="S5" style="text;html=1;strokeColor=none;fillColor=none;align=center;verticalAlign=middle;whiteSpace=wrap;rounded=0;" vertex="1" parent="1">
          <mxGeometry x="600" y="110" width="60" height="40" as="geometry" />
        </mxCell>
        <mxCell id="tMXvaUWMIYpln-5o30sm-25" value="" style="edgeStyle=orthogonalEdgeStyle;rounded=0;orthogonalLoop=1;jettySize=auto;html=1;" edge="1" parent="1" source="tMXvaUWMIYpln-5o30sm-15" target="tMXvaUWMIYpln-5o30sm-16">
          <mxGeometry relative="1" as="geometry" />
        </mxCell>
        <mxCell id="tMXvaUWMIYpln-5o30sm-15" value="S6" style="text;html=1;strokeColor=none;fillColor=none;align=center;verticalAlign=middle;whiteSpace=wrap;rounded=0;" vertex="1" parent="1">
          <mxGeometry x="720" y="110" width="60" height="40" as="geometry" />
        </mxCell>
        <mxCell id="tMXvaUWMIYpln-5o30sm-26" value="" style="edgeStyle=orthogonalEdgeStyle;rounded=0;orthogonalLoop=1;jettySize=auto;html=1;" edge="1" parent="1" source="tMXvaUWMIYpln-5o30sm-16">
          <mxGeometry relative="1" as="geometry">
            <mxPoint x="-21.5999755859375" y="320" as="targetPoint" />
            <Array as="points">
              <mxPoint x="930" y="130" />
              <mxPoint x="930" y="350" />
              <mxPoint x="-22" y="350" />
            </Array>
          </mxGeometry>
        </mxCell>
        <mxCell id="tMXvaUWMIYpln-5o30sm-16" value="S7" style="text;html=1;strokeColor=none;fillColor=none;align=center;verticalAlign=middle;whiteSpace=wrap;rounded=0;" vertex="1" parent="1">
          <mxGeometry x="840" y="110" width="60" height="40" as="geometry" />
        </mxCell>
        <mxCell id="tMXvaUWMIYpln-5o30sm-29" value="" style="endArrow=classic;html=1;rounded=0;exitX=0.5;exitY=1;exitDx=0;exitDy=0;" edge="1" parent="1" source="tMXvaUWMIYpln-5o30sm-6">
          <mxGeometry width="50" height="50" relative="1" as="geometry">
            <mxPoint x="460" y="310" as="sourcePoint" />
            <mxPoint x="-20" y="200" as="targetPoint" />
            <Array as="points">
              <mxPoint x="150" y="200" />
            </Array>
          </mxGeometry>
        </mxCell>
        <mxCell id="tMXvaUWMIYpln-5o30sm-30" value="" style="endArrow=classic;html=1;rounded=0;exitX=0.5;exitY=1;exitDx=0;exitDy=0;" edge="1" parent="1" source="tMXvaUWMIYpln-5o30sm-1">
          <mxGeometry width="50" height="50" relative="1" as="geometry">
            <mxPoint x="460" y="310" as="sourcePoint" />
            <mxPoint x="-20" y="220" as="targetPoint" />
            <Array as="points">
              <mxPoint x="270" y="220" />
            </Array>
          </mxGeometry>
        </mxCell>
        <mxCell id="tMXvaUWMIYpln-5o30sm-31" value="" style="endArrow=classic;html=1;rounded=0;exitX=0.5;exitY=1;exitDx=0;exitDy=0;" edge="1" parent="1" source="tMXvaUWMIYpln-5o30sm-2">
          <mxGeometry width="50" height="50" relative="1" as="geometry">
            <mxPoint x="460" y="310" as="sourcePoint" />
            <mxPoint x="-20" y="240" as="targetPoint" />
            <Array as="points">
              <mxPoint x="390" y="240" />
            </Array>
          </mxGeometry>
        </mxCell>
        <mxCell id="tMXvaUWMIYpln-5o30sm-32" value="" style="endArrow=classic;html=1;rounded=0;exitX=0.5;exitY=1;exitDx=0;exitDy=0;" edge="1" parent="1" source="tMXvaUWMIYpln-5o30sm-3">
          <mxGeometry width="50" height="50" relative="1" as="geometry">
            <mxPoint x="460" y="310" as="sourcePoint" />
            <mxPoint x="-20" y="260" as="targetPoint" />
            <Array as="points">
              <mxPoint x="510" y="260" />
            </Array>
          </mxGeometry>
        </mxCell>
        <mxCell id="tMXvaUWMIYpln-5o30sm-33" value="" style="endArrow=classic;html=1;rounded=0;exitX=0.5;exitY=1;exitDx=0;exitDy=0;" edge="1" parent="1" source="tMXvaUWMIYpln-5o30sm-4">
          <mxGeometry width="50" height="50" relative="1" as="geometry">
            <mxPoint x="460" y="310" as="sourcePoint" />
            <mxPoint x="-20" y="280" as="targetPoint" />
            <Array as="points">
              <mxPoint x="630" y="280" />
            </Array>
          </mxGeometry>
        </mxCell>
        <mxCell id="tMXvaUWMIYpln-5o30sm-34" value="" style="endArrow=classic;html=1;rounded=0;exitX=0.5;exitY=1;exitDx=0;exitDy=0;" edge="1" parent="1" source="tMXvaUWMIYpln-5o30sm-5">
          <mxGeometry width="50" height="50" relative="1" as="geometry">
            <mxPoint x="460" y="310" as="sourcePoint" />
            <mxPoint x="-20" y="300" as="targetPoint" />
            <Array as="points">
              <mxPoint x="750" y="300" />
            </Array>
          </mxGeometry>
        </mxCell>
        <mxCell id="tMXvaUWMIYpln-5o30sm-35" value="" style="endArrow=classic;html=1;rounded=0;exitX=0.5;exitY=1;exitDx=0;exitDy=0;entryX=0;entryY=0.5;entryDx=0;entryDy=0;" edge="1" parent="1" source="tMXvaUWMIYpln-5o30sm-8" target="tMXvaUWMIYpln-5o30sm-9">
          <mxGeometry width="50" height="50" relative="1" as="geometry">
            <mxPoint x="460" y="310" as="sourcePoint" />
            <mxPoint x="-20" y="320" as="targetPoint" />
            <Array as="points">
              <mxPoint x="870" y="320" />
              <mxPoint x="-20" y="320" />
              <mxPoint x="-20" y="130" />
            </Array>
          </mxGeometry>
        </mxCell>
        <mxCell id="tMXvaUWMIYpln-5o30sm-36" value="" style="endArrow=classic;html=1;rounded=0;exitX=0.5;exitY=1;exitDx=0;exitDy=0;" edge="1" parent="1" source="tMXvaUWMIYpln-5o30sm-7">
          <mxGeometry width="50" height="50" relative="1" as="geometry">
            <mxPoint x="460" y="310" as="sourcePoint" />
            <mxPoint x="-20" y="180" as="targetPoint" />
            <Array as="points">
              <mxPoint x="30" y="180" />
            </Array>
          </mxGeometry>
        </mxCell>
        <mxCell id="tMXvaUWMIYpln-5o30sm-39" value="" style="endArrow=classic;html=1;rounded=0;exitX=0.5;exitY=0;exitDx=0;exitDy=0;" edge="1" parent="1" source="tMXvaUWMIYpln-5o30sm-1">
          <mxGeometry width="50" height="50" relative="1" as="geometry">
            <mxPoint x="460" y="170" as="sourcePoint" />
            <mxPoint x="130" y="60" as="targetPoint" />
            <Array as="points">
              <mxPoint x="270" y="60" />
            </Array>
          </mxGeometry>
        </mxCell>
        <mxCell id="tMXvaUWMIYpln-5o30sm-40" value="" style="endArrow=classic;html=1;rounded=0;exitX=0.893;exitY=0.015;exitDx=0;exitDy=0;exitPerimeter=0;" edge="1" parent="1" source="tMXvaUWMIYpln-5o30sm-10">
          <mxGeometry width="50" height="50" relative="1" as="geometry">
            <mxPoint x="460" y="170" as="sourcePoint" />
            <mxPoint x="130" y="80" as="targetPoint" />
            <Array as="points">
              <mxPoint x="174" y="80" />
            </Array>
          </mxGeometry>
        </mxCell>
        <mxCell id="tMXvaUWMIYpln-5o30sm-42" value="" style="endArrow=classic;html=1;rounded=0;exitX=0.5;exitY=0;exitDx=0;exitDy=0;" edge="1" parent="1" source="tMXvaUWMIYpln-5o30sm-3">
          <mxGeometry width="50" height="50" relative="1" as="geometry">
            <mxPoint x="460" y="170" as="sourcePoint" />
            <mxPoint x="130" y="20" as="targetPoint" />
            <Array as="points">
              <mxPoint x="510" y="20" />
            </Array>
          </mxGeometry>
        </mxCell>
        <mxCell id="tMXvaUWMIYpln-5o30sm-43" value="" style="endArrow=classic;html=1;rounded=0;exitX=0.5;exitY=0;exitDx=0;exitDy=0;" edge="1" parent="1" source="tMXvaUWMIYpln-5o30sm-4">
          <mxGeometry width="50" height="50" relative="1" as="geometry">
            <mxPoint x="460" y="170" as="sourcePoint" />
            <mxPoint x="130" as="targetPoint" />
            <Array as="points">
              <mxPoint x="630" />
            </Array>
          </mxGeometry>
        </mxCell>
        <mxCell id="tMXvaUWMIYpln-5o30sm-44" value="" style="endArrow=classic;html=1;rounded=0;exitX=0.5;exitY=0;exitDx=0;exitDy=0;" edge="1" parent="1" source="tMXvaUWMIYpln-5o30sm-5">
          <mxGeometry width="50" height="50" relative="1" as="geometry">
            <mxPoint x="460" y="170" as="sourcePoint" />
            <mxPoint x="130" y="-20" as="targetPoint" />
            <Array as="points">
              <mxPoint x="750" y="-20" />
            </Array>
          </mxGeometry>
        </mxCell>
        <mxCell id="tMXvaUWMIYpln-5o30sm-45" value="" style="endArrow=classic;html=1;rounded=0;exitX=0.5;exitY=0;exitDx=0;exitDy=0;entryX=0.167;entryY=0;entryDx=0;entryDy=0;entryPerimeter=0;" edge="1" parent="1" source="tMXvaUWMIYpln-5o30sm-8" target="tMXvaUWMIYpln-5o30sm-10">
          <mxGeometry width="50" height="50" relative="1" as="geometry">
            <mxPoint x="460" y="170" as="sourcePoint" />
            <mxPoint x="130" y="-40" as="targetPoint" />
            <Array as="points">
              <mxPoint x="870" y="-40" />
              <mxPoint x="130" y="-40" />
            </Array>
          </mxGeometry>
        </mxCell>
        <mxCell id="tMXvaUWMIYpln-5o30sm-47" value="" style="endArrow=classic;html=1;rounded=0;exitX=0.5;exitY=0;exitDx=0;exitDy=0;entryX=0.5;entryY=0;entryDx=0;entryDy=0;" edge="1" parent="1" source="tMXvaUWMIYpln-5o30sm-4" target="tMXvaUWMIYpln-5o30sm-2">
          <mxGeometry width="50" height="50" relative="1" as="geometry">
            <mxPoint x="460" y="170" as="sourcePoint" />
            <mxPoint x="510" y="120" as="targetPoint" />
            <Array as="points">
              <mxPoint x="590" y="40" />
              <mxPoint x="440" y="40" />
            </Array>
          </mxGeometry>
        </mxCell>
        <mxCell id="tMXvaUWMIYpln-5o30sm-51" value="2/0" style="text;html=1;strokeColor=none;fillColor=none;align=center;verticalAlign=middle;whiteSpace=wrap;rounded=0;" vertex="1" parent="1">
          <mxGeometry x="800" y="-60" width="60" height="20" as="geometry" />
        </mxCell>
        <mxCell id="tMXvaUWMIYpln-5o30sm-54" value="2/0" style="text;html=1;strokeColor=none;fillColor=none;align=center;verticalAlign=middle;whiteSpace=wrap;rounded=0;" vertex="1" parent="1">
          <mxGeometry x="690" y="-40" width="60" height="20" as="geometry" />
        </mxCell>
        <mxCell id="tMXvaUWMIYpln-5o30sm-55" value="2/0" style="text;html=1;strokeColor=none;fillColor=none;align=center;verticalAlign=middle;whiteSpace=wrap;rounded=0;" vertex="1" parent="1">
          <mxGeometry x="570" y="-20" width="60" height="20" as="geometry" />
        </mxCell>
        <mxCell id="tMXvaUWMIYpln-5o30sm-57" value="2/0" style="text;html=1;strokeColor=none;fillColor=none;align=center;verticalAlign=middle;whiteSpace=wrap;rounded=0;" vertex="1" parent="1">
          <mxGeometry x="450" width="60" height="20" as="geometry" />
        </mxCell>
        <mxCell id="tMXvaUWMIYpln-5o30sm-58" value="5/0" style="text;html=1;strokeColor=none;fillColor=none;align=center;verticalAlign=middle;whiteSpace=wrap;rounded=0;" vertex="1" parent="1">
          <mxGeometry x="530" y="20" width="60" height="20" as="geometry" />
        </mxCell>
        <mxCell id="tMXvaUWMIYpln-5o30sm-60" value="2/0" style="text;html=1;strokeColor=none;fillColor=none;align=center;verticalAlign=middle;whiteSpace=wrap;rounded=0;" vertex="1" parent="1">
          <mxGeometry x="60" y="110" width="60" height="20" as="geometry" />
        </mxCell>
        <mxCell id="tMXvaUWMIYpln-5o30sm-61" value="1/0" style="text;html=1;strokeColor=none;fillColor=none;align=center;verticalAlign=middle;whiteSpace=wrap;rounded=0;" vertex="1" parent="1">
          <mxGeometry x="180" y="110" width="60" height="20" as="geometry" />
        </mxCell>
        <mxCell id="tMXvaUWMIYpln-5o30sm-62" value="5/0" style="text;html=1;strokeColor=none;fillColor=none;align=center;verticalAlign=middle;whiteSpace=wrap;rounded=0;" vertex="1" parent="1">
          <mxGeometry x="300" y="110" width="60" height="20" as="geometry" />
        </mxCell>
        <mxCell id="tMXvaUWMIYpln-5o30sm-63" value="2/0" style="text;html=1;strokeColor=none;fillColor=none;align=center;verticalAlign=middle;whiteSpace=wrap;rounded=0;" vertex="1" parent="1">
          <mxGeometry x="420" y="110" width="60" height="20" as="geometry" />
        </mxCell>
        <mxCell id="tMXvaUWMIYpln-5o30sm-64" value="1/0" style="text;html=1;strokeColor=none;fillColor=none;align=center;verticalAlign=middle;whiteSpace=wrap;rounded=0;" vertex="1" parent="1">
          <mxGeometry x="540" y="110" width="60" height="20" as="geometry" />
        </mxCell>
        <mxCell id="tMXvaUWMIYpln-5o30sm-65" value="8/0" style="text;html=1;strokeColor=none;fillColor=none;align=center;verticalAlign=middle;whiteSpace=wrap;rounded=0;" vertex="1" parent="1">
          <mxGeometry x="660" y="110" width="60" height="20" as="geometry" />
        </mxCell>
        <mxCell id="tMXvaUWMIYpln-5o30sm-66" value="1/0" style="text;html=1;strokeColor=none;fillColor=none;align=center;verticalAlign=middle;whiteSpace=wrap;rounded=0;" vertex="1" parent="1">
          <mxGeometry x="780" y="110" width="60" height="20" as="geometry" />
        </mxCell>
        <mxCell id="tMXvaUWMIYpln-5o30sm-68" value="&lt;b&gt;0/1&lt;/b&gt;" style="text;html=1;strokeColor=none;fillColor=none;align=center;verticalAlign=middle;whiteSpace=wrap;rounded=0;" vertex="1" parent="1">
          <mxGeometry x="840" y="330" width="60" height="20" as="geometry" />
        </mxCell>
        <mxCell id="tMXvaUWMIYpln-5o30sm-69" value="#0,#2/0" style="text;html=1;strokeColor=none;fillColor=none;align=center;verticalAlign=middle;whiteSpace=wrap;rounded=0;" vertex="1" parent="1">
          <mxGeometry x="780" y="300" width="60" height="20" as="geometry" />
        </mxCell>
        <mxCell id="tMXvaUWMIYpln-5o30sm-70" value="#1,#2/0" style="text;html=1;strokeColor=none;fillColor=none;align=center;verticalAlign=middle;whiteSpace=wrap;rounded=0;" vertex="1" parent="1">
          <mxGeometry x="660" y="280" width="60" height="20" as="geometry" />
        </mxCell>
        <mxCell id="tMXvaUWMIYpln-5o30sm-71" value="#2,#5,#8/0" style="text;html=1;strokeColor=none;fillColor=none;align=center;verticalAlign=middle;whiteSpace=wrap;rounded=0;" vertex="1" parent="1">
          <mxGeometry x="560" y="260" width="60" height="20" as="geometry" />
        </mxCell>
        <mxCell id="tMXvaUWMIYpln-5o30sm-72" value="#1,#2/0" style="text;html=1;strokeColor=none;fillColor=none;align=center;verticalAlign=middle;whiteSpace=wrap;rounded=0;" vertex="1" parent="1">
          <mxGeometry x="430" y="240" width="60" height="20" as="geometry" />
        </mxCell>
        <mxCell id="tMXvaUWMIYpln-5o30sm-75" value="#2/0" style="text;html=1;strokeColor=none;fillColor=none;align=center;verticalAlign=middle;whiteSpace=wrap;rounded=0;" vertex="1" parent="1">
          <mxGeometry x="310" y="220" width="60" height="20" as="geometry" />
        </mxCell>
        <mxCell id="tMXvaUWMIYpln-5o30sm-76" value="#5, #2/0" style="text;html=1;strokeColor=none;fillColor=none;align=center;verticalAlign=middle;whiteSpace=wrap;rounded=0;" vertex="1" parent="1">
          <mxGeometry x="200" y="200" width="60" height="20" as="geometry" />
        </mxCell>
        <mxCell id="tMXvaUWMIYpln-5o30sm-77" value="#1, #2/0" style="text;html=1;strokeColor=none;fillColor=none;align=center;verticalAlign=middle;whiteSpace=wrap;rounded=0;" vertex="1" parent="1">
          <mxGeometry x="90" y="180" width="60" height="20" as="geometry" />
        </mxCell>
        <mxCell id="tMXvaUWMIYpln-5o30sm-78" value="#2/0" style="text;html=1;strokeColor=none;fillColor=none;align=center;verticalAlign=middle;whiteSpace=wrap;rounded=0;" vertex="1" parent="1">
          <mxGeometry x="-10" y="160" width="45" height="20" as="geometry" />
        </mxCell>
        <mxCell id="tMXvaUWMIYpln-5o30sm-79" value="2/0" style="text;html=1;strokeColor=none;fillColor=none;align=center;verticalAlign=middle;whiteSpace=wrap;rounded=0;" vertex="1" parent="1">
          <mxGeometry x="210" y="40" width="60" height="20" as="geometry" />
        </mxCell>
        <mxCell id="tMXvaUWMIYpln-5o30sm-80" value="2/0" style="text;html=1;strokeColor=none;fillColor=none;align=center;verticalAlign=middle;whiteSpace=wrap;rounded=0;" vertex="1" parent="1">
          <mxGeometry x="135" y="60" width="45" height="20" as="geometry" />
        </mxCell>
      </root>
    </mxGraphModel>
  </diagram>
</mxfile>
